<svg version="1.1" xmlns="http://www.w3.org/2000/svg" xmlns:xlink="http://www.w3.org/1999/xlink" width="713" height="757"><defs/><g><g/><g/><g/><g/><g/><g/><g/><g/><g/><g/><g/><g/><g/><g/><g/><g/><g/><g/><g/><g/><g/><g/><g/><g/><g><rect fill="white" stroke="none" x="0" y="0" width="713" height="757"/></g><g><text fill="black" stroke="none" font-family="sans-serif" font-size="16.5pt" font-style="normal" font-weight="normal" text-decoration="normal" x="39.40398502094274" y="24.50280495" text-anchor="start" dominant-baseline="alphabetic" xml:space="preserve">Example of UART-ADC-UART interaction through hardware ISRs</text></g><g><g><path fill="lightblue" stroke="black" paint-order="fill stroke markers" d=" M 191.23655863333335 50.394102180500006 L 364.8017475553334 50.394102180500006 L 364.8017475553334 722.9194600457774 L 191.23655863333335 722.9194600457774 L 191.23655863333335 50.394102180500006" stroke-miterlimit="10" stroke-width="1.3612669416666667" stroke-dasharray=""/></g><g><text fill="black" stroke="none" font-family="sans-serif" font-size="11pt" font-style="normal" font-weight="normal" text-decoration="normal" x="224.51915309433338" y="73.2633868005" text-anchor="start" dominant-baseline="alphabetic" xml:space="preserve">HW (no % CPU)</text></g><g><path fill="yellow" stroke="black" paint-order="fill stroke markers" d=" M 475.9709924581667 50.394102180500006 L 705.5361813801668 50.394102180500006 L 705.5361813801668 722.9194600457774 L 475.9709924581667 722.9194600457774 L 475.9709924581667 50.394102180500006" stroke-miterlimit="10" stroke-width="1.3612669416666667" stroke-dasharray=""/></g><g><text fill="black" stroke="none" font-family="sans-serif" font-size="11pt" font-style="normal" font-weight="normal" text-decoration="normal" x="574.7535869191668" y="73.2633868005" text-anchor="start" dominant-baseline="alphabetic" xml:space="preserve">ISRs</text></g><rect fill="rgb(255,204,255)" stroke="none" x="16.33520329999999" y="410.1013869544032" width="576.2002979386667" height="171.51856454637402"/></g><g><path fill="none" stroke="black" paint-order="fill stroke markers" d=" M 81.67601649999999 133.458610961 L 81.67601649999999 757.2233869757774" stroke-miterlimit="10" stroke-width="1.3612669416666667" stroke-dasharray="12.565541,5.445067766666667"/><path fill="none" stroke="black" paint-order="fill stroke markers" d=" M 236.62785586383336 133.458610961 L 236.62785586383336 757.2233869757774" stroke-miterlimit="10" stroke-width="1.3612669416666667" stroke-dasharray="12.565541,5.445067766666667"/><path fill="none" stroke="black" paint-order="fill stroke markers" d=" M 323.4104503248334 133.458610961 L 323.4104503248334 757.2233869757774" stroke-miterlimit="10" stroke-width="1.3612669416666667" stroke-dasharray="12.565541,5.445067766666667"/><path fill="none" stroke="black" paint-order="fill stroke markers" d=" M 535.3622896886667 133.458610961 L 535.3622896886667 757.2233869757774" stroke-miterlimit="10" stroke-width="1.3612669416666667" stroke-dasharray="12.565541,5.445067766666667"/><path fill="none" stroke="black" paint-order="fill stroke markers" d=" M 650.1448841496667 133.458610961 L 650.1448841496667 757.2233869757774" stroke-miterlimit="10" stroke-width="1.3612669416666667" stroke-dasharray="12.565541,5.445067766666667"/></g><g><path fill="none" stroke="none"/><g><path fill="white" stroke="black" paint-order="fill stroke markers" d=" M 42.95232091949998 89.35356205100001 L 120.3997120805 89.35356205100001 L 120.3997120805 133.458610961 L 42.95232091949998 133.458610961 L 42.95232091949998 89.35356205100001 Z" stroke-miterlimit="10" stroke-width="2.613632528" stroke-dasharray=""/></g><g><g/><text fill="black" stroke="none" font-family="sans-serif" font-size="11pt" font-style="normal" font-weight="normal" text-decoration="normal" x="60.67601649999999" y="117.12340766099999" text-anchor="start" dominant-baseline="alphabetic" xml:space="preserve">main()</text></g><path fill="none" stroke="none"/><g><path fill="white" stroke="black" paint-order="fill stroke markers" d=" M 199.40416028333334 89.35356205100001 L 273.8515514443334 89.35356205100001 L 273.8515514443334 133.458610961 L 199.40416028333334 133.458610961 L 199.40416028333334 89.35356205100001 Z" stroke-miterlimit="10" stroke-width="2.613632528" stroke-dasharray=""/></g><g><g/><text fill="black" stroke="none" font-family="sans-serif" font-size="11pt" font-style="normal" font-weight="normal" text-decoration="normal" x="217.12785586383336" y="117.12340766099999" text-anchor="start" dominant-baseline="alphabetic" xml:space="preserve">UART</text></g><path fill="none" stroke="none"/><g><path fill="white" stroke="black" paint-order="fill stroke markers" d=" M 290.18675474433337 89.35356205100001 L 356.63414590533336 89.35356205100001 L 356.63414590533336 133.458610961 L 290.18675474433337 133.458610961 L 290.18675474433337 89.35356205100001 Z" stroke-miterlimit="10" stroke-width="2.613632528" stroke-dasharray=""/></g><g><g/><text fill="black" stroke="none" font-family="sans-serif" font-size="11pt" font-style="normal" font-weight="normal" text-decoration="normal" x="307.9104503248334" y="117.12340766099999" text-anchor="start" dominant-baseline="alphabetic" xml:space="preserve">ADC</text></g><path fill="none" stroke="none"/><g><path fill="white" stroke="black" paint-order="fill stroke markers" d=" M 484.13859410816667 89.35356205100001 L 586.5859852691667 89.35356205100001 L 586.5859852691667 133.458610961 L 484.13859410816667 133.458610961 L 484.13859410816667 89.35356205100001 Z" stroke-miterlimit="10" stroke-width="2.613632528" stroke-dasharray=""/></g><g><g/><text fill="black" stroke="none" font-family="sans-serif" font-size="11pt" font-style="normal" font-weight="normal" text-decoration="normal" x="501.8622896886667" y="117.12340766099999" text-anchor="start" dominant-baseline="alphabetic" xml:space="preserve">UART ISR</text></g><path fill="none" stroke="none"/><g><path fill="white" stroke="black" paint-order="fill stroke markers" d=" M 602.9211885691667 89.35356205100001 L 697.3685797301667 89.35356205100001 L 697.3685797301667 133.458610961 L 602.9211885691667 133.458610961 L 602.9211885691667 89.35356205100001 Z" stroke-miterlimit="10" stroke-width="2.613632528" stroke-dasharray=""/></g><g><g/><text fill="black" stroke="none" font-family="sans-serif" font-size="11pt" font-style="normal" font-weight="normal" text-decoration="normal" x="620.6448841496667" y="117.12340766099999" text-anchor="start" dominant-baseline="alphabetic" xml:space="preserve">ADC ISR</text></g></g><g><path fill="white" stroke="black" paint-order="fill stroke markers" d=" M 73.50841485 141.626212611 L 89.84361814999998 141.626212611 L 89.84361814999998 207.783785976 L 73.50841485 207.783785976 L 73.50841485 141.626212611" stroke-miterlimit="10" stroke-width="1.3612669416666667" stroke-dasharray=""/><path fill="blue" stroke="black" paint-order="fill stroke markers" d=" M 228.46025421383337 141.626212611 L 244.79545751383336 141.626212611 L 244.79545751383336 207.783785976 L 228.46025421383337 207.783785976 L 228.46025421383337 141.626212611" stroke-miterlimit="10" stroke-width="1.3612669416666667" stroke-dasharray=""/><path fill="white" stroke="black" paint-order="fill stroke markers" d=" M 527.1946880386666 207.783785976 L 543.5298913386667 207.783785976 L 543.5298913386667 292.72684313599996 L 527.1946880386666 292.72684313599996 L 527.1946880386666 207.783785976" stroke-miterlimit="10" stroke-width="1.3612669416666667" stroke-dasharray=""/><path fill="magenta" stroke="black" paint-order="fill stroke markers" d=" M 315.2428486748334 250.255314556 L 331.5780519748334 250.255314556 L 331.5780519748334 313.72368748440323 L 315.2428486748334 313.72368748440323 L 315.2428486748334 250.255314556" stroke-miterlimit="10" stroke-width="1.3612669416666667" stroke-dasharray=""/><path fill="white" stroke="black" paint-order="fill stroke markers" d=" M 73.50841485 292.72684313599996 L 89.84361814999998 292.72684313599996 L 89.84361814999998 330.0588907844032 L 73.50841485 330.0588907844032 L 73.50841485 292.72684313599996" stroke-miterlimit="10" stroke-width="1.3612669416666667" stroke-dasharray=""/><path fill="white" stroke="black" paint-order="fill stroke markers" d=" M 641.9772824996667 330.0588907844032 L 658.3124857996668 330.0588907844032 L 658.3124857996668 392.1326633244032 L 641.9772824996667 392.1326633244032 L 641.9772824996667 330.0588907844032" stroke-miterlimit="10" stroke-width="1.3612669416666667" stroke-dasharray=""/><path fill="green" stroke="black" paint-order="fill stroke markers" d=" M 228.46025421383337 364.3628177144032 L 244.79545751383336 364.3628177144032 L 244.79545751383336 470.5718649022992 L 228.46025421383337 470.5718649022992 L 228.46025421383337 364.3628177144032" stroke-miterlimit="10" stroke-width="1.3612669416666667" stroke-dasharray=""/><path fill="white" stroke="black" paint-order="fill stroke markers" d=" M 73.50841485 392.1326633244032 L 89.84361814999998 392.1326633244032 L 89.84361814999998 486.9070682022992 L 73.50841485 486.9070682022992 L 73.50841485 392.1326633244032" stroke-miterlimit="10" stroke-width="1.3612669416666667" stroke-dasharray=""/><path fill="white" stroke="black" paint-order="fill stroke markers" d=" M 527.1946880386666 486.9070682022992 L 543.5298913386667 486.9070682022992 L 543.5298913386667 557.1484423922992 L 527.1946880386666 557.1484423922992 L 527.1946880386666 486.9070682022992" stroke-miterlimit="10" stroke-width="1.3612669416666667" stroke-dasharray=""/><path fill="green" stroke="black" paint-order="fill stroke markers" d=" M 228.46025421383337 529.3785967822992 L 244.79545751383336 529.3785967822992 L 244.79545751383336 593.0545938107772 L 228.46025421383337 593.0545938107772 L 228.46025421383337 529.3785967822992" stroke-miterlimit="10" stroke-width="1.3612669416666667" stroke-dasharray=""/><path fill="white" stroke="black" paint-order="fill stroke markers" d=" M 73.50841485 557.1484423922992 L 89.84361814999998 557.1484423922992 L 89.84361814999998 609.3897971107773 L 73.50841485 609.3897971107773 L 73.50841485 557.1484423922992" stroke-miterlimit="10" stroke-width="1.3612669416666667" stroke-dasharray=""/><path fill="white" stroke="black" paint-order="fill stroke markers" d=" M 527.1946880386666 609.3897971107773 L 543.5298913386667 609.3897971107773 L 543.5298913386667 700.0501754257774 L 527.1946880386666 700.0501754257774 L 527.1946880386666 609.3897971107773" stroke-miterlimit="10" stroke-width="1.3612669416666667" stroke-dasharray=""/><path fill="white" stroke="black" paint-order="fill stroke markers" d=" M 73.50841485 700.0501754257774 L 89.84361814999998 700.0501754257774 L 89.84361814999998 740.8881836757774 L 73.50841485 740.8881836757774 L 73.50841485 700.0501754257774" stroke-miterlimit="10" stroke-width="1.3612669416666667" stroke-dasharray=""/><path fill="white" stroke="black" paint-order="fill stroke markers" d=" M 207.75857124383336 144.076493106 L 250.79545751383338 144.076493106 L 265.4971404838334 158.778176076 L 265.4971404838334 181.647460696 L 207.75857124383336 181.647460696 L 207.75857124383336 144.076493106 M 250.79545751383338 144.076493106 L 250.79545751383338 158.778176076 L 265.4971404838334 158.778176076" stroke-miterlimit="10" stroke-width="1.3612669416666667" stroke-dasharray=""/><g><text fill="black" stroke="none" font-family="sans-serif" font-size="11pt" font-style="normal" font-weight="normal" text-decoration="normal" x="230.62785586383336" y="166.94577772599996" text-anchor="start" dominant-baseline="alphabetic" xml:space="preserve">rx</text></g><g><text fill="black" stroke="none" font-family="sans-serif" font-size="11pt" font-style="normal" font-weight="normal" text-decoration="normal" x="345.07887360125005" y="184.91450135599996" text-anchor="start" dominant-baseline="alphabetic" xml:space="preserve">  RX interrrupt</text><text fill="black" stroke="none" font-family="sans-serif" font-size="11pt" font-style="normal" font-weight="normal" text-decoration="normal" x="345.07887360125005" y="201.24970465599995" text-anchor="start" dominant-baseline="alphabetic" xml:space="preserve">       flag</text></g><g><path fill="none" stroke="black" paint-order="fill stroke markers" d=" M 244.79545751383336 207.783785976 L 532.6397558053334 207.783785976" stroke-miterlimit="10" stroke-width="1.3612669416666667" stroke-dasharray=""/><g transform="translate(535.3622896886667,207.783785976) translate(-535.3622896886667,-207.783785976)"><path fill="black" stroke="none" paint-order="stroke fill markers" d=" M 521.749620272 200.97745126766665 L 535.3622896886667 207.783785976 L 521.749620272 214.59012068433333 Z"/></g></g><g><text fill="black" stroke="none" font-family="sans-serif" font-size="11pt" font-style="normal" font-weight="normal" text-decoration="normal" x="128.15193618191665" y="201.24970465599998" text-anchor="start" dominant-baseline="alphabetic" xml:space="preserve">Suspend </text></g><g><path fill="none" stroke="red" paint-order="fill stroke markers" d=" M 228.46025421383337 207.783785976 L 92.56615203333331 207.783785976" stroke-miterlimit="10" stroke-width="1.3612669416666667" stroke-dasharray="6.53408132"/><g transform="translate(89.84361814999998,207.783785976) translate(-89.84361814999998,-207.783785976)"><path fill="none" stroke="red" paint-order="fill stroke markers" d=" M 103.45628756666666 200.97745126766665 L 91.20488509166665 207.783785976 L 103.45628756666666 214.59012068433333" stroke-miterlimit="10" stroke-width="1.3612669416666667"/></g></g><g><text fill="black" stroke="none" font-family="sans-serif" font-size="11pt" font-style="normal" font-weight="normal" text-decoration="normal" x="374.88637000675" y="243.721233236" text-anchor="start" dominant-baseline="alphabetic" xml:space="preserve">Start Conversion</text></g><g><path fill="none" stroke="black" paint-order="fill stroke markers" d=" M 527.1946880386666 250.255314556 L 334.3005858581667 250.255314556" stroke-miterlimit="10" stroke-width="1.3612669416666667" stroke-dasharray="6.53408132"/><g transform="translate(331.5780519748334,250.255314556) translate(-331.5780519748334,-250.255314556)"><path fill="black" stroke="none" paint-order="stroke fill markers" d=" M 345.19072139150006 243.44897984766666 L 331.5780519748334 250.255314556 L 345.19072139150006 257.0616492643333 Z"/></g></g><g><text fill="black" stroke="none" font-family="sans-serif" font-size="11pt" font-style="normal" font-weight="normal" text-decoration="normal" x="280.5191530943333" y="286.1927618159999" text-anchor="start" dominant-baseline="alphabetic" xml:space="preserve">Resume</text></g><g><path fill="none" stroke="black" paint-order="fill stroke markers" d=" M 527.1946880386666 292.72684313599996 L 92.56615203333331 292.72684313599996" stroke-miterlimit="10" stroke-width="1.3612669416666667" stroke-dasharray=""/><g transform="translate(89.84361814999998,292.72684313599996) translate(-89.84361814999998,-292.72684313599996)"><path fill="black" stroke="none" paint-order="stroke fill markers" d=" M 103.45628756666665 285.9205084276666 L 89.84361814999998 292.72684313599996 L 103.45628756666665 299.5331778443333 Z"/></g></g><g><text fill="black" stroke="none" font-family="sans-serif" font-size="11pt" font-style="normal" font-weight="normal" text-decoration="normal" x="460.27766723725006" y="313.962607426" text-anchor="start" dominant-baseline="alphabetic" xml:space="preserve">Interrupt</text></g><g><path fill="none" stroke="black" paint-order="fill stroke markers" d=" M 331.5780519748334 313.72368748440323 L 639.2547486163334 329.9156135462471" stroke-miterlimit="10" stroke-width="1.3612669416666667" stroke-dasharray=""/><g transform="translate(641.9772824996667,330.0588907844032) rotate(3.01249329188011,0,0) translate(-641.9772824996667,-330.0588907844032)"><path fill="black" stroke="none" paint-order="stroke fill markers" d=" M 628.364613083 323.2525560760699 L 641.9772824996667 330.0588907844032 L 628.364613083 336.86522549273656 Z"/><g transform="rotate(-3.01249329188011,0,0)"/></g></g><g><text fill="black" stroke="none" font-family="sans-serif" font-size="11pt" font-style="normal" font-weight="normal" text-decoration="normal" x="480.69386641225003" y="323.5248094644032" text-anchor="start" dominant-baseline="alphabetic" xml:space="preserve"> </text></g><g><path fill="none" stroke="red" paint-order="fill stroke markers" d=" M 641.9772824996667 330.0588907844032 L 326.1329842081667 330.0588907844032" stroke-miterlimit="10" stroke-width="1.3612669416666667" stroke-dasharray="6.53408132"/><g transform="translate(323.4104503248334,330.0588907844032) translate(-323.4104503248334,-330.0588907844032)"><path fill="none" stroke="red" paint-order="fill stroke markers" d=" M 337.02311974150007 323.2525560760699 L 324.77171726650005 330.0588907844032 L 337.02311974150007 336.86522549273656" stroke-miterlimit="10" stroke-width="1.3612669416666667"/></g></g><g><text fill="black" stroke="none" font-family="sans-serif" font-size="11pt" font-style="normal" font-weight="normal" text-decoration="normal" x="173.6270342374167" y="323.5248094644032" text-anchor="start" dominant-baseline="alphabetic" xml:space="preserve">Suspend  </text></g><g><path fill="none" stroke="red" paint-order="fill stroke markers" d=" M 323.4104503248334 330.0588907844032 L 92.56615203333331 330.0588907844032" stroke-miterlimit="10" stroke-width="1.3612669416666667" stroke-dasharray="6.53408132"/><g transform="translate(89.84361814999998,330.0588907844032) translate(-89.84361814999998,-330.0588907844032)"><path fill="none" stroke="red" paint-order="fill stroke markers" d=" M 103.45628756666666 323.2525560760699 L 91.20488509166665 330.0588907844032 L 103.45628756666666 336.86522549273656" stroke-miterlimit="10" stroke-width="1.3612669416666667"/></g></g><g><text fill="black" stroke="none" font-family="sans-serif" font-size="11pt" font-style="normal" font-weight="normal" text-decoration="normal" x="395.88637000675" y="357.82873639440317" text-anchor="start" dominant-baseline="alphabetic" xml:space="preserve">Start TX (IT)    </text></g><g><path fill="none" stroke="black" paint-order="fill stroke markers" d=" M 641.9772824996667 364.3628177144032 L 247.5179913971667 364.3628177144032" stroke-miterlimit="10" stroke-width="1.3612669416666667" stroke-dasharray="6.53408132"/><g transform="translate(244.79545751383336,364.3628177144032) translate(-244.79545751383336,-364.3628177144032)"><path fill="black" stroke="none" paint-order="stroke fill markers" d=" M 258.40812693050003 357.55648300606987 L 244.79545751383336 364.3628177144032 L 258.40812693050003 371.16915242273654 Z"/></g></g><g><text fill="black" stroke="none" font-family="sans-serif" font-size="11pt" font-style="normal" font-weight="normal" text-decoration="normal" x="337.91045032483333" y="385.59858200440317" text-anchor="start" dominant-baseline="alphabetic" xml:space="preserve">Resume</text></g><g><path fill="none" stroke="black" paint-order="fill stroke markers" d=" M 641.9772824996667 392.1326633244032 L 92.56615203333331 392.1326633244032" stroke-miterlimit="10" stroke-width="1.3612669416666667" stroke-dasharray=""/><g transform="translate(89.84361814999998,392.1326633244032) translate(-89.84361814999998,-392.1326633244032)"><path fill="black" stroke="none" paint-order="stroke fill markers" d=" M 103.45628756666665 385.3263286160699 L 89.84361814999998 392.1326633244032 L 103.45628756666665 398.93899803273655 Z"/></g></g><path fill="white" stroke="black" paint-order="fill stroke markers" d=" M 177.75857124383336 446.85559437940316 L 177.75857124383336 446.85559437940316 A 14.70168297 14.70168297 0 0 1 192.46025421383337 432.1539114094032 L 280.79545751383336 432.1539114094032 L 280.79545751383336 432.1539114094032 A 14.70168297 14.70168297 0 0 1 295.49714048383333 446.85559437940316 L 295.49714048383333 450.7760431714032 L 295.49714048383333 450.7760431714032 A 14.70168297 14.70168297 0 0 1 280.79545751383336 465.4777261414032 L 192.46025421383337 465.4777261414032 L 192.46025421383337 465.4777261414032 A 14.70168297 14.70168297 0 0 1 177.75857124383336 450.7760431714032 L 177.75857124383336 446.85559437940316" stroke-miterlimit="10" stroke-width="1.3612669416666667" stroke-dasharray=""/><g><text fill="black" stroke="none" font-family="sans-serif" font-size="8.8pt" font-style="normal" font-weight="normal" text-decoration="normal" x="200.62785586383336" y="452.08285943540324" text-anchor="start" dominant-baseline="alphabetic" xml:space="preserve">~10 bit-times</text></g><g><g><rect fill="rgb(255,204,255)" stroke="none" x="355.12859310625004" y="455.6766041614032" width="69.90056099" height="21.23576429"/></g><text fill="black" stroke="none" font-family="sans-serif" font-size="11pt" font-style="normal" font-weight="normal" text-decoration="normal" x="357.57887360125005" y="470.37828713140317" text-anchor="start" dominant-baseline="alphabetic" xml:space="preserve">   Interrupt</text></g><g><path fill="none" stroke="black" paint-order="fill stroke markers" d=" M 244.79545751383336 470.5718649022992 L 532.6397558053334 486.7540116949803" stroke-miterlimit="10" stroke-width="1.3612669416666667" stroke-dasharray=""/><g transform="translate(535.3622896886667,486.9070682022992) rotate(3.2176902349506715,0,0) translate(-535.3622896886667,-486.9070682022992)"><path fill="black" stroke="none" paint-order="stroke fill markers" d=" M 521.749620272 480.10073349396583 L 535.3622896886667 486.9070682022992 L 521.749620272 493.7134029106325 Z"/><g transform="rotate(-3.2176902349506715,0,0)"/></g></g><g><g><rect fill="rgb(255,204,255)" stroke="none" x="381.54479228125" y="465.67130391229915" width="8.900560989999999" height="21.23576429"/></g><text fill="black" stroke="none" font-family="sans-serif" font-size="11pt" font-style="normal" font-weight="normal" text-decoration="normal" x="383.99507277625" y="480.37298688229913" text-anchor="start" dominant-baseline="alphabetic" xml:space="preserve"> </text></g><g><path fill="none" stroke="red" paint-order="fill stroke markers" d=" M 535.3622896886667 486.9070682022992 L 239.3503897471667 486.9070682022992" stroke-miterlimit="10" stroke-width="1.3612669416666667" stroke-dasharray="6.53408132"/><g transform="translate(236.62785586383336,486.9070682022992) translate(-236.62785586383336,-486.9070682022992)"><path fill="none" stroke="red" paint-order="fill stroke markers" d=" M 250.2405252805 480.10073349396583 L 237.98912280550002 486.9070682022992 L 250.2405252805 493.7134029106325" stroke-miterlimit="10" stroke-width="1.3612669416666667"/></g></g><g><g><rect fill="rgb(255,204,255)" stroke="none" x="127.78545651191668" y="465.67130391229915" width="70.90056099" height="21.23576429"/></g><text fill="black" stroke="none" font-family="sans-serif" font-size="11pt" font-style="normal" font-weight="normal" text-decoration="normal" x="130.23573700691668" y="480.37298688229913" text-anchor="start" dominant-baseline="alphabetic" xml:space="preserve">Suspend  </text></g><g><path fill="none" stroke="red" paint-order="fill stroke markers" d=" M 236.62785586383336 486.9070682022992 L 92.56615203333331 486.9070682022992" stroke-miterlimit="10" stroke-width="1.3612669416666667" stroke-dasharray="6.53408132"/><g transform="translate(89.84361814999998,486.9070682022992) translate(-89.84361814999998,-486.9070682022992)"><path fill="none" stroke="red" paint-order="fill stroke markers" d=" M 103.45628756666666 480.10073349396583 L 91.20488509166665 486.9070682022992 L 103.45628756666666 493.7134029106325" stroke-miterlimit="10" stroke-width="1.3612669416666667"/></g></g><g><g><rect fill="rgb(255,204,255)" stroke="none" x="336.04479228125" y="508.14283249229914" width="99.90056099" height="21.23576429"/></g><text fill="black" stroke="none" font-family="sans-serif" font-size="11pt" font-style="normal" font-weight="normal" text-decoration="normal" x="338.49507277625" y="522.8445154622991" text-anchor="start" dominant-baseline="alphabetic" xml:space="preserve">Feed next byte</text></g><g><path fill="none" stroke="black" paint-order="fill stroke markers" d=" M 527.1946880386666 529.3785967822992 L 247.5179913971667 529.3785967822992" stroke-miterlimit="10" stroke-width="1.3612669416666667" stroke-dasharray="6.53408132"/><g transform="translate(244.79545751383336,529.3785967822992) translate(-244.79545751383336,-529.3785967822992)"><path fill="black" stroke="none" paint-order="stroke fill markers" d=" M 258.40812693050003 522.5722620739658 L 244.79545751383336 529.3785967822992 L 258.40812693050003 536.1849314906325 Z"/></g></g><g><g><rect fill="rgb(255,204,255)" stroke="none" x="278.0688725993333" y="535.9126781022992" width="60.90056099" height="21.23576429"/></g><text fill="black" stroke="none" font-family="sans-serif" font-size="11pt" font-style="normal" font-weight="normal" text-decoration="normal" x="280.5191530943333" y="550.6143610722992" text-anchor="start" dominant-baseline="alphabetic" xml:space="preserve">Resume</text></g><g><path fill="none" stroke="black" paint-order="fill stroke markers" d=" M 527.1946880386666 557.1484423922992 L 92.56615203333331 557.1484423922992" stroke-miterlimit="10" stroke-width="1.3612669416666667" stroke-dasharray="6.53408132"/><g transform="translate(89.84361814999998,557.1484423922992) translate(-89.84361814999998,-557.1484423922992)"><path fill="black" stroke="none" paint-order="stroke fill markers" d=" M 103.45628756666665 550.3421076839659 L 89.84361814999998 557.1484423922992 L 103.45628756666665 563.9547771006326 Z"/></g></g><g><g><rect fill="rgb(255,204,255)" stroke="none" x="359.12859310625004" y="578.3842066822991" width="61.90056099" height="21.23576429"/></g><text fill="black" stroke="none" font-family="sans-serif" font-size="11pt" font-style="normal" font-weight="normal" text-decoration="normal" x="361.57887360125005" y="593.0858896522991" text-anchor="start" dominant-baseline="alphabetic" xml:space="preserve"> Interrupt</text></g><g><path fill="none" stroke="black" paint-order="fill stroke markers" d=" M 244.79545751383336 593.0545938107772 L 532.6397558053334 609.2367406034583" stroke-miterlimit="10" stroke-width="1.3612669416666667" stroke-dasharray=""/><g transform="translate(535.3622896886667,609.3897971107772) rotate(3.2176902349506715,0,0) translate(-535.3622896886667,-609.3897971107772)"><path fill="black" stroke="none" paint-order="stroke fill markers" d=" M 521.749620272 602.5834624024438 L 535.3622896886667 609.3897971107772 L 521.749620272 616.1961318191105 Z"/><g transform="rotate(-3.2176902349506715,0,0)"/></g></g><g><text fill="black" stroke="none" font-family="sans-serif" font-size="11pt" font-style="normal" font-weight="normal" text-decoration="normal" x="383.99507277625" y="602.8557157907773" text-anchor="start" dominant-baseline="alphabetic" xml:space="preserve"> </text></g><g><path fill="none" stroke="red" paint-order="fill stroke markers" d=" M 535.3622896886667 609.3897971107773 L 239.3503897471667 609.3897971107773" stroke-miterlimit="10" stroke-width="1.3612669416666667" stroke-dasharray="6.53408132"/><g transform="translate(236.62785586383336,609.3897971107773) translate(-236.62785586383336,-609.3897971107773)"><path fill="none" stroke="red" paint-order="fill stroke markers" d=" M 250.2405252805 602.583462402444 L 237.98912280550002 609.3897971107773 L 250.2405252805 616.1961318191106" stroke-miterlimit="10" stroke-width="1.3612669416666667"/></g></g><g><text fill="black" stroke="none" font-family="sans-serif" font-size="11pt" font-style="normal" font-weight="normal" text-decoration="normal" x="130.23573700691668" y="602.8557157907773" text-anchor="start" dominant-baseline="alphabetic" xml:space="preserve">Suspend  </text></g><g><path fill="none" stroke="red" paint-order="fill stroke markers" d=" M 236.62785586383336 609.3897971107773 L 92.56615203333331 609.3897971107773" stroke-miterlimit="10" stroke-width="1.3612669416666667" stroke-dasharray="6.53408132"/><g transform="translate(89.84361814999998,609.3897971107773) translate(-89.84361814999998,-609.3897971107773)"><path fill="none" stroke="red" paint-order="fill stroke markers" d=" M 103.45628756666666 602.583462402444 L 91.20488509166665 609.3897971107773 L 103.45628756666666 616.1961318191106" stroke-miterlimit="10" stroke-width="1.3612669416666667"/></g></g><path fill="white" stroke="black" paint-order="fill stroke markers" d=" M 464.1946880386667 634.7093622257773 L 606.5298913386667 634.7093622257773 L 621.2315743086667 653.4948460207773 L 606.5298913386667 672.2803298157773 L 464.1946880386667 672.2803298157773 L 449.4930050686667 653.4948460207773 L 464.1946880386667 634.7093622257773" stroke-miterlimit="10" stroke-width="1.3612669416666667" stroke-dasharray=""/><g><text fill="black" stroke="none" font-family="sans-serif" font-size="11pt" font-style="normal" font-weight="normal" text-decoration="normal" x="472.3622896886667" y="657.5786468457774" text-anchor="start" dominant-baseline="alphabetic" xml:space="preserve">completed-callback</text></g><g><text fill="black" stroke="none" font-family="sans-serif" font-size="11pt" font-style="normal" font-weight="normal" text-decoration="normal" x="280.5191530943333" y="693.5160941057774" text-anchor="start" dominant-baseline="alphabetic" xml:space="preserve">Resume</text></g><g><path fill="none" stroke="black" paint-order="fill stroke markers" d=" M 527.1946880386666 700.0501754257774 L 92.56615203333331 700.0501754257774" stroke-miterlimit="10" stroke-width="1.3612669416666667" stroke-dasharray="6.53408132"/><g transform="translate(89.84361814999998,700.0501754257774) translate(-89.84361814999998,-700.0501754257774)"><path fill="black" stroke="none" paint-order="stroke fill markers" d=" M 103.45628756666665 693.2438407174441 L 89.84361814999998 700.0501754257774 L 103.45628756666665 706.8565101341107 Z"/></g></g><g><g/><path fill="none" stroke="black" paint-order="fill stroke markers" d=" M 16.33520329999999 410.1013869544032 L 592.5355012386667 410.1013869544032 L 592.5355012386667 581.6199515007772 L 16.33520329999999 581.6199515007772 L 16.33520329999999 410.1013869544032 Z" stroke-miterlimit="10" stroke-width="2.3336004714285714" stroke-dasharray=""/><path fill="#ff00ff" stroke="black" paint-order="fill stroke markers" d=" M 16.33520329999999 410.1013869544032 L 16.33520329999999 429.7036309144032 L 73.0056099 429.7036309144032 L 82.80673188 419.9025089344032 L 82.80673188 410.1013869544032 L 16.33520329999999 410.1013869544032" stroke-miterlimit="10" stroke-width="2.3336004714285714" stroke-dasharray=""/><text fill="black" stroke="none" font-family="sans-serif" font-size="8.8pt" font-style="normal" font-weight="bold" text-decoration="normal" x="32.67040659999999" y="423.16954959440324" text-anchor="start" dominant-baseline="alphabetic" xml:space="preserve">loop</text><text fill="black" stroke="none" font-family="sans-serif" font-size="8.8pt" font-style="normal" font-weight="bold" text-decoration="normal" x="99.14193518" y="423.16954959440324" text-anchor="start" dominant-baseline="alphabetic" xml:space="preserve">[repeat for each byte]</text></g></g><g/><g/><g/><g/><g/></g></svg>